<svg id="Layer_1" data-name="Layer 1" xmlns="http://www.w3.org/2000/svg" viewBox="0 0 775.13 522"><defs><style>.cls-1{fill:#393f4f;}</style></defs><title>loader</title><path class="cls-1" d="M714,326.44A73.56,73.56,0,1,0,787.56,400,73.56,73.56,0,0,0,714,326.44ZM610,400a103.8,103.8,0,0,1,38.35-80.66,261.21,261.21,0,0,0-496.69,0,104,104,0,0,1,0,161.32,261.21,261.21,0,0,0,496.69,0A103.8,103.8,0,0,1,610,400ZM400,549.85c-82.63,0-149.85-67.22-149.85-149.85S317.37,250.15,400,250.15,549.85,317.37,549.85,400,482.63,549.85,400,549.85ZM86,326.44A73.56,73.56,0,1,0,159.56,400,73.56,73.56,0,0,0,86,326.44Z" transform="translate(-12.44 -139)"/></svg>